<mxfile host="app.diagrams.net" agent="Mozilla/5.0 (Windows NT 10.0; Win64; x64) AppleWebKit/537.36 (KHTML, like Gecko) Chrome/131.0.0.0 Safari/537.36" version="24.9.1">
  <diagram name="หน้า-1" id="WUjqH23E7xG67JZTHNDt">
    <mxGraphModel dx="794" dy="446" grid="1" gridSize="10" guides="1" tooltips="1" connect="1" arrows="1" fold="1" page="1" pageScale="1" pageWidth="827" pageHeight="1169" math="0" shadow="0">
      <root>
        <mxCell id="0" />
        <mxCell id="1" parent="0" />
        <mxCell id="d3jsy6whuu8x_uf7F04--3" value="" style="edgeStyle=orthogonalEdgeStyle;rounded=0;orthogonalLoop=1;jettySize=auto;html=1;" edge="1" parent="1" source="d3jsy6whuu8x_uf7F04--1" target="d3jsy6whuu8x_uf7F04--2">
          <mxGeometry relative="1" as="geometry" />
        </mxCell>
        <mxCell id="d3jsy6whuu8x_uf7F04--1" value="start" style="strokeWidth=2;html=1;shape=mxgraph.flowchart.terminator;whiteSpace=wrap;" vertex="1" parent="1">
          <mxGeometry x="360" y="200" width="100" height="60" as="geometry" />
        </mxCell>
        <mxCell id="d3jsy6whuu8x_uf7F04--5" value="" style="edgeStyle=orthogonalEdgeStyle;rounded=0;orthogonalLoop=1;jettySize=auto;html=1;" edge="1" parent="1" source="d3jsy6whuu8x_uf7F04--2" target="d3jsy6whuu8x_uf7F04--4">
          <mxGeometry relative="1" as="geometry" />
        </mxCell>
        <mxCell id="d3jsy6whuu8x_uf7F04--2" value="ใส่ชื่อ" style="shape=parallelogram;perimeter=parallelogramPerimeter;whiteSpace=wrap;html=1;fixedSize=1;strokeWidth=2;" vertex="1" parent="1">
          <mxGeometry x="350" y="340" width="120" height="60" as="geometry" />
        </mxCell>
        <mxCell id="d3jsy6whuu8x_uf7F04--9" value="" style="edgeStyle=orthogonalEdgeStyle;rounded=0;orthogonalLoop=1;jettySize=auto;html=1;" edge="1" parent="1" source="d3jsy6whuu8x_uf7F04--4" target="d3jsy6whuu8x_uf7F04--8">
          <mxGeometry relative="1" as="geometry" />
        </mxCell>
        <mxCell id="d3jsy6whuu8x_uf7F04--4" value="ใส่นามสกุล" style="shape=parallelogram;perimeter=parallelogramPerimeter;whiteSpace=wrap;html=1;fixedSize=1;strokeWidth=2;" vertex="1" parent="1">
          <mxGeometry x="350" y="480" width="120" height="60" as="geometry" />
        </mxCell>
        <mxCell id="d3jsy6whuu8x_uf7F04--11" value="" style="edgeStyle=orthogonalEdgeStyle;rounded=0;orthogonalLoop=1;jettySize=auto;html=1;" edge="1" parent="1" source="d3jsy6whuu8x_uf7F04--8" target="d3jsy6whuu8x_uf7F04--10">
          <mxGeometry relative="1" as="geometry" />
        </mxCell>
        <mxCell id="d3jsy6whuu8x_uf7F04--18" style="edgeStyle=orthogonalEdgeStyle;rounded=0;orthogonalLoop=1;jettySize=auto;html=1;exitX=0;exitY=0.5;exitDx=0;exitDy=0;entryX=0;entryY=0.5;entryDx=0;entryDy=0;" edge="1" parent="1" source="d3jsy6whuu8x_uf7F04--8" target="d3jsy6whuu8x_uf7F04--12">
          <mxGeometry relative="1" as="geometry">
            <Array as="points">
              <mxPoint x="190" y="675" />
              <mxPoint x="190" y="1025" />
            </Array>
          </mxGeometry>
        </mxCell>
        <mxCell id="d3jsy6whuu8x_uf7F04--8" value="อักษรตัวที่ 2 เป็นตัว C" style="rhombus;whiteSpace=wrap;html=1;strokeWidth=2;" vertex="1" parent="1">
          <mxGeometry x="340" y="610" width="140" height="130" as="geometry" />
        </mxCell>
        <mxCell id="d3jsy6whuu8x_uf7F04--13" value="" style="edgeStyle=orthogonalEdgeStyle;rounded=0;orthogonalLoop=1;jettySize=auto;html=1;" edge="1" parent="1" source="d3jsy6whuu8x_uf7F04--10" target="d3jsy6whuu8x_uf7F04--12">
          <mxGeometry relative="1" as="geometry" />
        </mxCell>
        <mxCell id="d3jsy6whuu8x_uf7F04--10" value="เปลี่ยน C เป็น D" style="whiteSpace=wrap;html=1;strokeWidth=2;" vertex="1" parent="1">
          <mxGeometry x="350" y="855" width="120" height="60" as="geometry" />
        </mxCell>
        <mxCell id="d3jsy6whuu8x_uf7F04--20" value="" style="edgeStyle=orthogonalEdgeStyle;rounded=0;orthogonalLoop=1;jettySize=auto;html=1;" edge="1" parent="1" source="d3jsy6whuu8x_uf7F04--12" target="d3jsy6whuu8x_uf7F04--19">
          <mxGeometry relative="1" as="geometry" />
        </mxCell>
        <mxCell id="d3jsy6whuu8x_uf7F04--12" value="แสดงผลลัพธ์" style="shape=parallelogram;perimeter=parallelogramPerimeter;whiteSpace=wrap;html=1;fixedSize=1;strokeWidth=2;" vertex="1" parent="1">
          <mxGeometry x="350" y="995" width="120" height="60" as="geometry" />
        </mxCell>
        <mxCell id="d3jsy6whuu8x_uf7F04--19" value="End" style="strokeWidth=2;html=1;shape=mxgraph.flowchart.terminator;whiteSpace=wrap;" vertex="1" parent="1">
          <mxGeometry x="360" y="1130" width="100" height="60" as="geometry" />
        </mxCell>
      </root>
    </mxGraphModel>
  </diagram>
</mxfile>
